<svg width="386" height="163" xmlns="http://www.w3.org/2000/svg"><g fill="none" fill-rule="evenodd"><path fill="#C15A2E" d="M43.26 163H0l28.82-61.5H.42V63.66H46.8L76.2.56h59.25v37.85h-33.6L89.91 63.66h45.52v37.84H72.08L43.26 163"/><path d="M187.23 47.9v15.32h28.55v9.92h-28.55V101H176V38h41v9.9h-29.77zM240 92.97c6.75 0 11.56-5.35 11.56-14.02 0-8.85-4.63-14-11.56-14-6.93 0-11.55 5.25-11.55 14 0 8.76 4.8 14.02 11.55 14.02zM240 56c13.4 0 22 9.03 22 23.14 0 14.01-8.5 22.86-22 22.86s-22-8.85-22-22.86c0-14.1 8.6-23.14 22-23.14zm38.52 1.1v6.46c.83-2.21 4.33-7.56 12.82-7.56.55 0 .74 0 1.66.1v10.69c-1.01-.1-2.03-.19-2.95-.19-5.63 0-8.77 2.03-10.33 6-.83 2.21-1.2 4.8-1.2 8.67V101H268V57.1h10.52zm38.21 8.04c-7.12 0-11.19 4.95-11.19 13.9 0 8.87 4.07 13.72 11.19 13.72 7.03 0 11.2-5.13 11.2-13.72 0-8.58-4.17-13.9-11.2-13.9zm-9.99 38.53c.47 4.1 2.32 8.03 9.9 8.03 7.95 0 10.82-3.27 10.82-11.66v-4.02h-.1c-1.47 2.06-5.17 5.7-12.94 5.7-11.93 0-19.42-8.78-19.42-22.3 0-14 7.21-23.42 19.33-23.42 6.1 0 10.72 2.8 13.13 5.97v-4.85H338v41.89c0 4.76-.37 7.83-1.39 10.63-2.77 7.47-9.52 10.36-20.34 10.36-13.22 0-19.79-5.97-20.16-15.49l10.63-.84zm46.89-29.69h21.64c-.28-5.72-4.47-9.6-10.45-9.6-6.06 0-10.9 4.34-11.19 9.6zM386 90.94c-1.96 3.04-7.93 11.06-20.9 11.06-13.15 0-22.1-9.22-22.1-23.42C343 65.03 352.42 56 364.82 56c14.18 0 21 9.68 21 23.14 0 .74-.1 1.93-.1 2.67h-32.37c.75 6 4.48 11.16 12.31 11.16 8.03 0 11.57-5.35 12.97-7.56l7.37 5.53z" fill="#55565C" fill-rule="nonzero"/></g></svg>